<mxfile host="app.diagrams.net" modified="2023-10-22T06:25:44.729Z" agent="Mozilla/5.0 (Macintosh; Intel Mac OS X 10_15_7) AppleWebKit/537.36 (KHTML, like Gecko) Chrome/117.0.0.0 Safari/537.36" version="21.4.0" etag="c9L89_cK0lXsy3aA_aYK" type="github">
  <diagram name="Page-1" id="PKYOwJgA0W5mVfVy_u2j">
    <mxGraphModel>
      <root>
        <mxCell id="0" />
        <mxCell id="1" parent="0" />
      </root>
    </mxGraphModel>
  </diagram>
</mxfile>
